<?xml version="1.0" encoding="UTF-8"?>
<svg xmlns="http://www.w3.org/2000/svg" viewBox="0 0 1917.31 709.35">
  <defs>
    <style>
      .cls-1 {
        fill: #009fe3;
      }

      .cls-1, .cls-2, .cls-3 {
        stroke: #1d1d1b;
        stroke-miterlimit: 10;
      }

      .cls-1, .cls-3 {
        stroke-width: 5px;
      }

      .cls-2 {
        fill: #fff;
        stroke-width: 25px;
      }

      .cls-3 {
        fill: #4daf50;
      }

      .cls-4 {
        fill: #1d1d1b;
        font-family: MyriadPro-Regular, 'Myriad Pro';
        font-size: 596.21px;
      }

      .cls-5 {
        fill: #1e1e1e;
      }
    </style>
  </defs>
  <g id="Layer_3" data-name="Layer 3">
    <path class="cls-2" d="m375.84,242.13v-61.29h-143.05v62.86c-56.74,27.29-95.91,85.31-95.91,152.49,0,93.41,75.72,169.13,169.13,169.13s169.13-75.72,169.13-169.13c0-68.5-40.73-127.47-99.29-154.06Z"/>
    <path class="cls-1" d="m147.36,396.34c0,87.62,71.03,158.64,158.64,158.64s158.64-71.03,158.64-158.64c0-13.61-1.72-26.82-4.94-39.43H152.3c-3.23,12.61-4.94,25.82-4.94,39.43Z"/>
    <text class="cls-4" transform="translate(494.13 565.32)"><tspan x="0" y="0">RPER</tspan></text>
  </g>
  <g id="Layer_4" data-name="Layer 4">
    <path class="cls-3" d="m258.97,517.26l37.62-86.85c-12.69-4-21.88-15.85-21.88-29.85,0-17.28,14.01-31.3,31.3-31.3s31.3,14.01,31.3,31.3c0,14-9.2,25.86-21.88,29.85l37.62,86.85c46.18-18.63,78.77-63.86,78.77-116.71,0-69.48-56.32-125.8-125.8-125.8s-125.8,56.32-125.8,125.8c0,52.85,32.59,98.08,78.77,116.71Z"/>
  </g>
  <g id="open_hardware" data-name="open hardware">
    <path class="cls-5" d="m395.07,351.31l10.82-27.23c-7.59-9.9-16.62-18.64-26.78-25.91l-26.61,10.58-16.09-6.76-.4,1.34-11.75-27.25c-5.96-.87-12.06-1.32-18.26-1.32s-12.3.46-18.26,1.32l-11.8,27.36-7.06,2.97-7.09,2.89-28.58-11.36c-9.66,6.86-18.3,15.06-25.67,24.31l11.74,29.55-2.89,7.09-2.97,7.06-31.47,13.57c-1.15,6.84-1.76,13.86-1.76,21.03,0,3.85.19,7.65.53,11.41l32.7,14.1,2.97,7.06,2.89,7.09-14.13,35.55c1.24,1.66,2.53,3.28,3.85,4.87l6.18,6.18,10.32,10.32,36.28-14.42,7.1,2.9,3.2,1.35,24.5-56.55c-12.69-4-21.88-15.85-21.88-29.85,0-17.28,14.01-31.3,31.3-31.3s31.3,14.01,31.3,31.3c0,14-9.2,25.86-21.88,29.85l24.5,56.55,3.2-1.35,7.1-2.9,36.28,14.42,10.32-10.32,6.18-6.18c1.32-1.6,2.61-3.21,3.85-4.87l-13.53-34.04,6.33-15.5,31.57-13.61c.38-3.97.59-7.99.59-12.06,0-7.31-.63-14.48-1.83-21.45l-28.37-12.23-6.54-15.56Z"/>
  </g>
</svg>